<?xml version="1.0" encoding="UTF-8" standalone="no"?>
<!DOCTYPE svg PUBLIC "-//W3C//DTD SVG 20010904//EN"
"http://www.w3.org/TR/2001/REC-SVG-20010904/DTD/svg10.dtd">
<svg
	version="1.0"
	xmlns="http://www.w3.org/2000/svg"
	xmlns:xlink="http://www.w3.org/1999/xlink"
   width="184"
   height="184">
	<defs>
		<rect id="alive" x="0" y="0" width="14" height="14" fill="black" stroke="#c0c0c0" stroke-width="2"/>
		<rect id="dead" x="0" y="0" width="14" height="14" fill="white" stroke="#c0c0c0" stroke-width="2"/>
	</defs>
	<g transform="translate(1,1)">

		<use xlink:href="#dead" transform="translate(0,0)"/>
		<use xlink:href="#dead" transform="translate(14,0)"/>

		<use xlink:href="#alive" transform="translate(28,0)"/>
		<use xlink:href="#alive" transform="translate(42,0)"/>
		<use xlink:href="#dead" transform="translate(56,0)"/>
		<use xlink:href="#dead" transform="translate(70,0)"/>
		<use xlink:href="#dead" transform="translate(84,0)"/>
		<use xlink:href="#dead" transform="translate(98,0)"/>
		<use xlink:href="#dead" transform="translate(112,0)"/>
		<use xlink:href="#alive" transform="translate(126,0)"/>
		<use xlink:href="#alive" transform="translate(140,0)"/>

		<use xlink:href="#dead" transform="translate(154,0)"/>
		<use xlink:href="#dead" transform="translate(168,0)"/>

		<use xlink:href="#dead" transform="translate(0,14)"/>
		<use xlink:href="#dead" transform="translate(14,14)"/>
		<use xlink:href="#dead" transform="translate(28,14)"/>
		<use xlink:href="#alive" transform="translate(42,14)"/>
		<use xlink:href="#alive" transform="translate(56,14)"/>
		<use xlink:href="#dead" transform="translate(70,14)"/>

		<use xlink:href="#dead" transform="translate(84,14)"/>
		<use xlink:href="#dead" transform="translate(98,14)"/>
		<use xlink:href="#alive" transform="translate(112,14)"/>
		<use xlink:href="#alive" transform="translate(126,14)"/>
		<use xlink:href="#dead" transform="translate(140,14)"/>
		<use xlink:href="#dead" transform="translate(154,14)"/>
		<use xlink:href="#dead" transform="translate(168,14)"/>

		<use xlink:href="#alive" transform="translate(0,28)"/>

		<use xlink:href="#dead" transform="translate(14,28)"/>
		<use xlink:href="#dead" transform="translate(28,28)"/>
		<use xlink:href="#alive" transform="translate(42,28)"/>
		<use xlink:href="#dead" transform="translate(56,28)"/>
		<use xlink:href="#alive" transform="translate(70,28)"/>
		<use xlink:href="#dead" transform="translate(84,28)"/>
		<use xlink:href="#alive" transform="translate(98,28)"/>
		<use xlink:href="#dead" transform="translate(112,28)"/>
		<use xlink:href="#alive" transform="translate(126,28)"/>

		<use xlink:href="#dead" transform="translate(140,28)"/>
		<use xlink:href="#dead" transform="translate(154,28)"/>
		<use xlink:href="#alive" transform="translate(168,28)"/>

		<use xlink:href="#alive" transform="translate(0,42)"/>
		<use xlink:href="#alive" transform="translate(14,42)"/>
		<use xlink:href="#alive" transform="translate(28,42)"/>
		<use xlink:href="#dead" transform="translate(42,42)"/>
		<use xlink:href="#alive" transform="translate(56,42)"/>

		<use xlink:href="#alive" transform="translate(70,42)"/>
		<use xlink:href="#dead" transform="translate(84,42)"/>
		<use xlink:href="#alive" transform="translate(98,42)"/>
		<use xlink:href="#alive" transform="translate(112,42)"/>
		<use xlink:href="#dead" transform="translate(126,42)"/>
		<use xlink:href="#alive" transform="translate(140,42)"/>
		<use xlink:href="#alive" transform="translate(154,42)"/>
		<use xlink:href="#alive" transform="translate(168,42)"/>

		<use xlink:href="#dead" transform="translate(0,56)"/>
		<use xlink:href="#alive" transform="translate(14,56)"/>
		<use xlink:href="#dead" transform="translate(28,56)"/>
		<use xlink:href="#alive" transform="translate(42,56)"/>
		<use xlink:href="#dead" transform="translate(56,56)"/>
		<use xlink:href="#alive" transform="translate(70,56)"/>
		<use xlink:href="#dead" transform="translate(84,56)"/>
		<use xlink:href="#alive" transform="translate(98,56)"/>
		<use xlink:href="#dead" transform="translate(112,56)"/>

		<use xlink:href="#alive" transform="translate(126,56)"/>
		<use xlink:href="#dead" transform="translate(140,56)"/>
		<use xlink:href="#alive" transform="translate(154,56)"/>
		<use xlink:href="#dead" transform="translate(168,56)"/>

		<use xlink:href="#dead" transform="translate(0,70)"/>
		<use xlink:href="#dead" transform="translate(14,70)"/>
		<use xlink:href="#alive" transform="translate(28,70)"/>
		<use xlink:href="#alive" transform="translate(42,70)"/>

		<use xlink:href="#alive" transform="translate(56,70)"/>
		<use xlink:href="#dead" transform="translate(70,70)"/>
		<use xlink:href="#dead" transform="translate(84,70)"/>
		<use xlink:href="#dead" transform="translate(98,70)"/>
		<use xlink:href="#alive" transform="translate(112,70)"/>
		<use xlink:href="#alive" transform="translate(126,70)"/>
		<use xlink:href="#alive" transform="translate(140,70)"/>
		<use xlink:href="#dead" transform="translate(154,70)"/>
		<use xlink:href="#dead" transform="translate(168,70)"/>

		<use xlink:href="#dead" transform="translate(0,84)"/>
		<use xlink:href="#dead" transform="translate(14,84)"/>
		<use xlink:href="#dead" transform="translate(28,84)"/>
		<use xlink:href="#dead" transform="translate(42,84)"/>
		<use xlink:href="#dead" transform="translate(56,84)"/>
		<use xlink:href="#dead" transform="translate(70,84)"/>
		<use xlink:href="#dead" transform="translate(84,84)"/>
		<use xlink:href="#dead" transform="translate(98,84)"/>

		<use xlink:href="#dead" transform="translate(112,84)"/>
		<use xlink:href="#dead" transform="translate(126,84)"/>
		<use xlink:href="#dead" transform="translate(140,84)"/>
		<use xlink:href="#dead" transform="translate(154,84)"/>
		<use xlink:href="#dead" transform="translate(168,84)"/>

		<use xlink:href="#dead" transform="translate(0,98)"/>
		<use xlink:href="#dead" transform="translate(14,98)"/>
		<use xlink:href="#alive" transform="translate(28,98)"/>

		<use xlink:href="#alive" transform="translate(42,98)"/>
		<use xlink:href="#alive" transform="translate(56,98)"/>
		<use xlink:href="#dead" transform="translate(70,98)"/>
		<use xlink:href="#dead" transform="translate(84,98)"/>
		<use xlink:href="#dead" transform="translate(98,98)"/>
		<use xlink:href="#alive" transform="translate(112,98)"/>
		<use xlink:href="#alive" transform="translate(126,98)"/>
		<use xlink:href="#alive" transform="translate(140,98)"/>
		<use xlink:href="#dead" transform="translate(154,98)"/>

		<use xlink:href="#dead" transform="translate(168,98)"/>

		<use xlink:href="#dead" transform="translate(0,112)"/>
		<use xlink:href="#alive" transform="translate(14,112)"/>
		<use xlink:href="#dead" transform="translate(28,112)"/>
		<use xlink:href="#alive" transform="translate(42,112)"/>
		<use xlink:href="#dead" transform="translate(56,112)"/>
		<use xlink:href="#alive" transform="translate(70,112)"/>
		<use xlink:href="#dead" transform="translate(84,112)"/>

		<use xlink:href="#alive" transform="translate(98,112)"/>
		<use xlink:href="#dead" transform="translate(112,112)"/>
		<use xlink:href="#alive" transform="translate(126,112)"/>
		<use xlink:href="#dead" transform="translate(140,112)"/>
		<use xlink:href="#alive" transform="translate(154,112)"/>
		<use xlink:href="#dead" transform="translate(168,112)"/>

		<use xlink:href="#alive" transform="translate(0,126)"/>
		<use xlink:href="#alive" transform="translate(14,126)"/>

		<use xlink:href="#alive" transform="translate(28,126)"/>
		<use xlink:href="#dead" transform="translate(42,126)"/>
		<use xlink:href="#alive" transform="translate(56,126)"/>
		<use xlink:href="#alive" transform="translate(70,126)"/>
		<use xlink:href="#dead" transform="translate(84,126)"/>
		<use xlink:href="#alive" transform="translate(98,126)"/>
		<use xlink:href="#alive" transform="translate(112,126)"/>
		<use xlink:href="#dead" transform="translate(126,126)"/>
		<use xlink:href="#alive" transform="translate(140,126)"/>

		<use xlink:href="#alive" transform="translate(154,126)"/>
		<use xlink:href="#alive" transform="translate(168,126)"/>

		<use xlink:href="#alive" transform="translate(0,140)"/>
		<use xlink:href="#dead" transform="translate(14,140)"/>
		<use xlink:href="#dead" transform="translate(28,140)"/>
		<use xlink:href="#alive" transform="translate(42,140)"/>
		<use xlink:href="#dead" transform="translate(56,140)"/>
		<use xlink:href="#alive" transform="translate(70,140)"/>

		<use xlink:href="#dead" transform="translate(84,140)"/>
		<use xlink:href="#alive" transform="translate(98,140)"/>
		<use xlink:href="#dead" transform="translate(112,140)"/>
		<use xlink:href="#alive" transform="translate(126,140)"/>
		<use xlink:href="#dead" transform="translate(140,140)"/>
		<use xlink:href="#dead" transform="translate(154,140)"/>
		<use xlink:href="#alive" transform="translate(168,140)"/>

		<use xlink:href="#dead" transform="translate(0,154)"/>

		<use xlink:href="#dead" transform="translate(14,154)"/>
		<use xlink:href="#dead" transform="translate(28,154)"/>
		<use xlink:href="#alive" transform="translate(42,154)"/>
		<use xlink:href="#alive" transform="translate(56,154)"/>
		<use xlink:href="#dead" transform="translate(70,154)"/>
		<use xlink:href="#dead" transform="translate(84,154)"/>
		<use xlink:href="#dead" transform="translate(98,154)"/>
		<use xlink:href="#alive" transform="translate(112,154)"/>
		<use xlink:href="#alive" transform="translate(126,154)"/>

		<use xlink:href="#dead" transform="translate(140,154)"/>
		<use xlink:href="#dead" transform="translate(154,154)"/>
		<use xlink:href="#dead" transform="translate(168,154)"/>

		<use xlink:href="#dead" transform="translate(0,168)"/>
		<use xlink:href="#dead" transform="translate(14,168)"/>
		<use xlink:href="#alive" transform="translate(28,168)"/>
		<use xlink:href="#alive" transform="translate(42,168)"/>
		<use xlink:href="#dead" transform="translate(56,168)"/>

		<use xlink:href="#dead" transform="translate(70,168)"/>
		<use xlink:href="#dead" transform="translate(84,168)"/>
		<use xlink:href="#dead" transform="translate(98,168)"/>
		<use xlink:href="#dead" transform="translate(112,168)"/>
		<use xlink:href="#alive" transform="translate(126,168)"/>
		<use xlink:href="#alive" transform="translate(140,168)"/>
		<use xlink:href="#dead" transform="translate(154,168)"/>
		<use xlink:href="#dead" transform="translate(168,168)"/>

	</g>
</svg>
